<?xml version="1.0" encoding="UTF-8" standalone="no"?>
<svg
   xmlns:dc="http://purl.org/dc/elements/1.1/"
   xmlns:cc="http://creativecommons.org/ns#"
   xmlns:rdf="http://www.w3.org/1999/02/22-rdf-syntax-ns#"
   xmlns:svg="http://www.w3.org/2000/svg"
   xmlns="http://www.w3.org/2000/svg"
   xmlns:xlink="http://www.w3.org/1999/xlink"
   xmlns:sodipodi="http://sodipodi.sourceforge.net/DTD/sodipodi-0.dtd"
   xmlns:inkscape="http://www.inkscape.org/namespaces/inkscape"
   width="944"
   height="999"
   version="1.1"
   id="svg2"
   inkscape:version="0.48.2 r9819"
   sodipodi:docname="Kunming.svg">
  <metadata
     id="metadata320">
    <rdf:RDF>
      <cc:Work
         rdf:about="">
        <dc:format>image/svg+xml</dc:format>
        <dc:type
           rdf:resource="http://purl.org/dc/dcmitype/StillImage" />
        <dc:title>雲南省行政区分地図</dc:title>
      </cc:Work>
    </rdf:RDF>
  </metadata>
  <sodipodi:namedview
     pagecolor="#ffffff"
     bordercolor="#666666"
     borderopacity="1"
     objecttolerance="10"
     gridtolerance="10"
     guidetolerance="10"
     inkscape:pageopacity="0"
     inkscape:pageshadow="2"
     inkscape:window-width="1920"
     inkscape:window-height="1017"
     id="namedview318"
     showgrid="false"
     inkscape:zoom="0.47247247"
     inkscape:cx="-15.106678"
     inkscape:cy="83.763352"
     inkscape:window-x="-8"
     inkscape:window-y="-8"
     inkscape:window-maximized="1"
     inkscape:current-layer="svg2" />
  <title
     id="title4">雲南省行政区分地図</title>
  <desc
     id="desc6">Author: Lincun</desc>
  <defs
     id="defs8">
    <path
       d="M1008 860l-4 2-19-11 2-11-6-3-3 3-5-5-16-4-6 5-1-32-4-7-9-1 2-4-3-7 4-17 13 1 4-17 5-6-16-9-15-6-3 6-20 4-9-12h-18l-1 5-12 3-17-15h-15l-2-13-2-6 6-8 10-2-4-7 17-13 15 2 1 5 8-6 6-8-1-24 6-8-8-10-12-17-8 1-7 10-7-5-11 4-4-9h-5l-7 10h-8l-9-8-6 5-5-4-3-6 5-3-4-16-9-3-1-6-16 2-18-5-4 3v12l-14-13-4-10-4-12 5-8 18 11 10-6 5-7 15-6 4-13 12-9 7 7 17 2 6 10 17 4 12 7 13-3 8 9 15-16 2-10-6-8 37-15 4-1 10-10 21-1 2-7h7l2-12-5-8 3-4 7-5-1-5 15-6 11 11-2 8 10 3z"
       id="450000" />
    <path
       d="M839-64v2l12 2 1-2 15 7 10 14 17-8 2-5 17 2-2 6 6 10 2 1 3 8h13l10-6 6 5 17-21 6-15zM1008-64v126h-1l-3-6-14 4-3 19 7 7-4 10-13 9-12-12-7 2-6 3-1 9-7-5-7 8 6 6-5 10-5-3-5 18-3-4-11 1 8-19-20-18 7 17-5 10 4 5-10-4-2 5-16-38-16-1-6-8-7 9-8-4-6-9-9-26-24-4 1-10-11-4-3-9 12-17 4 1 1-4 8-3 3-9 11-2 1-19-14-9-3-7 9-3-4-7 10 2 3-14 2-3z"
       id="500000" />
    <path
       d="M974-64l-6 15-17 21-6-5-10 6h-13l-3-8-2-1-6-10 2-6-17-2-2 5-17 8-10-14-15-7-1 2-12-2v-2zM834-64l-2 3-3 14-10-2 4 7-9 3 3 7 14 9-1 19-11 2-3 9-8 3-1 4-4-1-12 17 3 9 11 4-1 10 24 4 9 26 6 9 8 4 7-9 6 8 16 1 16 38-1 6-11-7-27-22-7 17-19 2-6 14 5 16 6 4 5-7 8 8 2 14 14-1 11-4 6 3 6 6 7 27-8 6-22 3-8 2-25 6-3 2-14-12-17 8-1-1 1-10-5-2-2-7 4-8-9-2-1-8-14-2-13 19-10 3h-3l-17 5-11-8-14-13 12-8 2-6-5-3 4-5-9-9-4 2-4-4-2-4-1-14 15-9-2-4-11 1-3-4-27 8-9-7-6 15 3 6 5 18-15 11-7-6-18 15v10l11 6-5 13-23 30-4 1-7 15-15 6-3-5-6 16 2 15-3 11 5 16 13 36v1l-6 5-1 14-10-1-7 6-13 11-7-5 2-10-8 1-13 4-16 12-12 12-18-4-8 7h-1l-5-15-7-6-7 4-4-8 7-2-2-10-16-11-7-11 6-1-1-10 6-6-6-3 1 5-6 2-3-6 3-8-12-6v-5l-12-8 3-15v-4l-12-2 1-7-12-19h-3l-2-16-5-1 2-6-6-1-7-13 1-6-4-6-12 11-11-4-5 10-6 4v-1l-1-14-12-4 1-5-5-6-8-10-1-10 15-8-4-2 3-5-12-5 2-7-8-4-3-10-6-4-6 3 2-9-10-6-2-14-9 3-5 10-5 15-13 5 3 28-3 12-20-28-4-50v-39l-9-45 7-27-7-40-1-9-1-5z"
       id="510000" />
    <path
       d="M1008 466l-10-3 2-8-11-11-15 6 1 5-7 5-3 4 5 8-2 12h-7l-2 7-21 1-10 10-4 1-37 15 6 8-2 10-15 16-8-9-13 3-12-7-17-4-6-10-17-2-7-7-12 9-4 13-15 6-5 7-10 6-18-11v-10l14-18v-5l-6-4 5-2 4-7 2-7 7 5v-9l-16-4-1-7-10-5 1-13-11 6-2-11-10-4v-14l5 1 6-22 1-14 6-5 6-19 9-9-11-18-1-5h-9l-5-12-7 9h-22l-4 10-15 2-10-1-4-7v-15l-7-8 7-7v-8l-7-11-8 5-1-7h5l-3-5 7-2 19-28 3-5 6 1 1 6 6 4 10 7 7-3 9-18 8 3 17 13 20-5 4 7 20-14 11 4 6-15-3-4 7-8v-9l17-8 14 12 3-2 25-6 8-2 22-3 8-6-7-27-6-6-6-3-11 4-14 1-2-14-8-8-5 7-6-4-5-16 6-14 19-2 7-17 27 22 11 7 1-6 2-5 10 4-4-5 5-10-7-17 20 18-8 19 11-1 3 4 5-18 5 3 5-10-6-6 7-8 7 5 1-9 6-3 7-2 12 12 13-9 4-10-7-7 3-19 14-4 3 6h1z"
       id="520000" />
    <path
       d="M600 569l-6 2-1-5h-7l3-21-6-1-1-17-9 17-6 3-3 24-12 5-9-7h-8l-21 15-9-9 7-8 4-29-8-10-5-18 9 4 7-6 4-12 2-6-6-8 3-3 5 3 4-7-3-18-8-6v-20l-5-5 10-10-8-4 1-8-11-12 16-12 13-4 8-1-2 10 7 5 13-11 7-6 10 1 1-14 6-5 4 18 1 11 7 6 5-2 8 17-3 7 3 15 10 2 5-4 1 6 7-1-3 9-2 12 4 5-9 1-1 7-7 3-8 15 4 1-1 9-4 1 6 11 15-6-4 17 2 15 5 6 14-5 3 16-4 13-11 10-5 1v-6l-18-10-5 16z"
       id="530100" />
    <path
       d="M651 545l-3 2-3-16-14 5-5-6-2-15 4-17-15 6-6-11 4-1 1-9-4-1 8-15 7-3 1-7 9-1-4-5 2-12 3-9-7 1-1-6-5 4-10-2-3-15 3-7-8-17-5 2-7-6-1-11-4-18v-1l2-8 12-1 4-11h14l-4-6 7-24 18-1 8-5 7 11v8l-7 7 7 8v15l4 7 10 1 15-2 4-10h22l7-9 5 12h9l1 5 11 18-9 9-6 19-6 5-1 14-6 22-5-1v14l10 4 2 11 11-6-1 13 10 5 1 7 16 4v9l-7-5-2 7-4 7-5 2 6 4v5l-14 18v10l-5 8 4 12 4 10-3 1-9 1-13 9-9-1 1-6-5-4h-15l-5-21-10-1-7-7-7 3 2-5z"
       id="530300" />
    <path
       d="M499 645l21 33-3 11-6-1-10 4-2 6h-26l-13-7 4-5-11-17 3-6-16-1-1-12-11 7-2-11 10-12-22-39 11-7 1-7 2 2 7 19 9-2 8-13 21 14 12-6 1-20-6 2-5-12 5-4-2-14 6-14h9l4-8 11 3 8 10-4 29-7 8 9 9 21-15h8l9 7 12-5 3-24 6-3 9-17 1 17 6 1-3 21h7l1 5-6 9 6 12 2 13-10 17-9-3-7 9-3-5-9 1-9 11-5-13-27-6v6l-10 2 1 3 4 9-11 3z"
       id="530400" />
    <path
       d="M138 551l-1-11 13-3-2-10-17-1-4-6-6 4-3-7 5-12-9-7 1-7-9-13 7-8 2-22 14 8 8-5 14-26 10 5 7-6 5 33 5 1 2-1 4-3 1-6 11 1-1 7 6 1 3 10 15-8 8 3 2 11-6-1-1 6 20 25 19 9 9-3 4-4 9-9h1l3 8 8 4 1 4-6 3-14 9-1 13-7 4 3 10-15 12 3 14-8 4-9 9-5 9h-10l-4-22h-5l-7 13-8 8-23 10-17 2 3-25-4-9 4-5-4-8-19 1z"
       id="530500" />
    <path
       d="M640 291l3 5h-5l1 7-18 1-7 24 4 6h-14l-4 11-12 1-2 8-13-36-5-16 3-11-2-15 6-16 3 5 15-6 7-15 4-1 23-30 5-13-11-6v-10l18-15 7 6 15-11-5-18-3-6 6-15 9 7 27-8 3 4 11-1 2 4-15 9 1 14 2 4 4 4 4-2 9 9-4 5 5 3-2 6-12 8 14 13 11 8 17-5h3l10-3 13-19 14 2 1 8 9 2-4 8 2 7 5 2-1 10 1 1v9l-7 8 3 4-6 15-11-4-20 14-4-7-20 5-17-13-8-3-9 18-7 3-10-7-6-4-1-6-6-1-3 5-19 28z"
       id="530600" />
    <path
       d="M407 373l-13 6-14 15-9-4-5 4-11 8 1 10-16-2-1-12-7-6 3-3-4-10 6-9-2-10 4-1-7-8-7-7-7-1-1-7-11 10-7-4-1 6-14-7-18 3-7-6-9-17 3-9-5 1-3-7-10-25 6-15-3-14 14-9h1l7 25 24 27 7 22 8-7 1-23 17-17-6-17 14-26 6-4 5-10 11 4 12-11 4 6-1 6 7 13 6 1-2 6 5 1 2 16h3l12 19-1 7 12 2v4l-3 15 12 8v5l12 6-3 8 3 6 6-2-1-5 6 3-6 6 1 10-6 1 7 11 1 6-7 5z"
       id="530700" />
    <path
       d="M226 786l1-10-8-17 16-11-3-9 12 1-5-17 5-9 7 1 5-10 12 6 10-6 15 4 10-29 4-12 24-5-8-10 1-10 1-1 3-10-1-1-2-11 11-2 3-6v-31l4-6-13-25h2l14 1 9-12 9 4 5 7 10-4 15 29 18 20h2l22 39-10 12 2 11 11-7 1 12 16 1-3 6 11 17-4 5 13 7-5 17 10 3 5-4 9 9-5 12-14-3-3 11-5 3 8 9 5-2 8 4 8 14 18 4 5 6 2 7-8 2v6l-8-1-3 3-12-6-12 2-3 6-10-13-5 1-6 3-2 14h-6l-8-7-6-19-9 2-15 2-17-6-9 1-7 4-8-4-2 7-9-1-10 7-1-4-22 8 5 6-4 11-15-3-14 7-1 8-10 10-8-1-3 4-11-5-3 3-5-6-18-4-20 3-11-8h4l9-19-3-5z"
       id="530800" />
    <path
       d="M256 705l-5 10-7-1-5 9-17-6-8 6-15-1-5-4 1-4-17-2 6-15-7-2 5-3-5-13-4 1-2-8 8-7-7-10-2-8-12-3 4-15-3-1 19-11 2-9 23-10 8-8 7-13h5l4 22h10l5-9 9-9 8-4-3-14 15-12-3-10 7-4 1-13 14-9 4 9 7-5 10 2-1 5-10 23 3 6 7-9 11-2 9 6 13 25-4 6v31l-3 6-11 2 2 11 1 1-3 10-1 1-1 10 8 10-24 5-4 12-10 29-15-4-10 6z"
       id="530900" />
    <path
       d="M484 533l-6 14 2 14-5 4 5 12 6-2-1 20-12 6-21-14-8 13-9 2-7-19-2-2-1 7-11 7h-2l-18-20-15-29-10 4-5-7-2-23 3-1 2-21 4 1v-9l16 2-3-8 8-2-9-14 2-8h4l-7-16 4-4-8-9 7-10-5-11v-16l14-15 13-6 21-3 7-5-1-6 16 11 2 10-7 2 4 8 7-4 7 6 5 15h1l8-7 18 4 12-12 11 12-1 8 8 4-10 10 5 5v20l8 6 3 18-4 7-5-3-3 3 6 8-2 6-4 12-7 6-9-4 5 18-11-3-4 8z"
       id="532300" />
    <path
       d="M648 755l-12 21-9-11 1-6-11-6-5 14-10 5-1 9-14 12-10-5-10-14-22-12-2 3-12-7-8 9 4 6-10 8-5-6-18-4-8-14-8-4-5 2-8-9 5-3 3-11 14 3 5-12-9-9-5 4-10-3 5-17h26l2-6 10-4 6 1 3-11-21-33 2-6 11-3-4-9-1-3 10-2v-6l27 6 5 13 9-11 9-1 3 5 7-9 9 3 10-17-2-13-6-12 6-9 6-2 5 2 5-16 18 10v6l5-1 11-10 4-13 3-2h4l-2 5 7-3 7 7 10 1 5 21-8 4-11 16-23 17 5 16 7 8-7 15 3 12-7 8 3 4 12-1-1 4 8 3v13l12 8 2 19 1 12-7 18 3 13 4 2 8-17 8-7 7 6 9-4v5l-18 4-7 11-1 19-4 2z"
       id="532500" />
    <path
       d="M743 751l-3-4-21 18-10-5 1-10v-5l-9 4-7-6-8 7-8 17-4-2-3-13 7-18-1-12-2-19-12-8v-13l-8-3 1-4-12 1-3-4 7-8-3-12 7-15-7-8-5-16 23-17 11-16 8-4h15l5 4-1 6 9 1 13-9 9-1 3-1 14 13v-12l4-3 18 5 16-2 1 6 9 3 4 16-5 3 3 6 5 4 6-5 9 8h8l7-10h5l4 9 11-4 7 5 7-10 8-1 12 17 8 10-6 8 1 24-6 8-8 6-1-5-15-2-17 13 4 7-10 2-6 8 2 6-22-21-2 2-6 11-16 1-13 12-4-2-9 6 5 18-12 14-10-3z"
       id="532600" />
    <path
       d="M397 865l-23 9-21 22-20 2-4-8-18 7-13-5-1-9 6-7-18-6-4-10 5-18-4-8 10-10 1-8 14-7 15 3 4-11-5-6 22-8 1 4 10-7 9 1 2-7 8 4 7-4 9-1 17 6 15-2 9-2 6 19 8 7h6l-10 11 5 8 2 20 8 3 8 13-3 10 9 12-9 4 3 7-5 18 11 15-12 7-5-6-8 2 2-6-6-2-25 8-7-5 2-8-10-12 5-2 2-13-7-3 3-3z"
       id="532800" />
    <path
       d="M355 539l-9 12-14-1h-2l-9-6-11 2-7 9-3-6 10-23 1-5-10-2-7 5-4-9 6-3-1-4-8-4-3-8h-1l-9 9-4 4-9 3-19-9-20-25 1-6 6 1-2-11-8-3-15 8-3-10-6-1 1-7-11-1-3-15 18 5-10-6 4-6 15 7-6-18-9 3 5-24 16 4-4-5 16-9 1-8 14-6 5-7-3-13 15-12 7 6 18-3 14 7 1-6 7 4 11-10 1 7 7 1 7 7 7 8-4 1 2 10-6 9 4 10-3 3 7 6 1 12 16 2-1-10 11-8 5-4 9 4v16l5 11-7 10 8 9-4 4 7 16h-4l-2 8 9 14-8 2 3 8-16-2v9l-4-1-2 21-3 1 2 23z"
       id="532900" />
    <path
       d="M111 612l-18 6-35 19-10-11 22-23-2-5 4-6-10-4 5-7-4-8h-14l3-32 25-11-7-7v-18l11-19 10 6 15-14 9 13-1 7 9 7-5 12 3 7 6-4 4 6 17 1 2 10-13 3 1 11 5 13 19-1 4 8-4 5 4 9-3 25-10 4-6-5z"
       id="533100" />
    <path
       d="M199 394l-5 24 9-3 6 18-15-7-4 6 10 6-18-5 3 15-1 6-4 3-2 1-5-1-5-33-9-12-3-16 6-3 2 6 5-4 1-7-5-5 8-29 3-56-5-5-1-13 4-13-4-20-2-9-8 2-2-8-11-3-2 13-10 3-8-21v-10l-5-3 3-6-6-7v-20l4-7 9-4-5-12 8-4 10 32 27-12 3 10 5-1 1 22 7 18-4 5 8 8-3 16 3 17 8 3-5 31 23 4 7-4-1-6 10 18 4-7 7 1 3 7 5-1-3 9 9 17-15 12 3 13-5 7-14 6-1 8-16 9 4 5z"
       id="533300" />
    <path
       d="M252 243l-14 9 3 14-6 15 10 25-7-1-4 7-10-18 1 6-7 4-23-4 5-31-8-3-3-17 3-16-8-8 4-5-7-18-1-22-5 1-3-10 6-12-4-10-8-9-1-19 7-4-1-11v-11v-5l10-3 7 21 11-2-3-16 9-8-5-14 14-6v39l4 50 20 28 3-12-3-28 13-5 5-15 5-10 9-3 2 14 10 6-2 9 6-3 6 4 3 10 8 4-2 7 12 5-3 5 4 2-15 8 1 10 8 10 5 6-1 5 12 4 1 14v1l-14 26 6 17-17 17-1 23-8 7-7-22-24-27-7-25z"
       id="533400" />
    <path
       d="M203-64l1 5 1 9 7 40-7 27 9 45-14 6 5 14-9 8 3 16-11 2-7-21-10 3v5v11l1 11-7 4 1 19 8 9 4 10-6 12-27 12-10-32-8 4 5 12-9 4-4 7-5-7-4 2-1-8-7-2-3-7-11 2-6-17-14-8-7 6-3 22-6-2-1 5-6 2-4 17 10 6-3 15-13-2-15 16-4-1-1-8-33-16-15-13-8-11-5 6-6-3-4-11-8 2v-227z"
       id="540000" />
  </defs>
  <rect
     style="fill:#699a6f;fill-opacity:1"
     x="0"
     y="-2.7533531e-014"
     width="944"
     height="999"
     id="rect61" />
  <g
     id="g31">
    <clipPath
       id="clip450000">
      <use
         xlink:href="#450000"
         id="use34" />
    </clipPath>
    <clipPath
       id="clip500000">
      <use
         xlink:href="#500000"
         id="use37" />
    </clipPath>
    <clipPath
       id="clip510000">
      <use
         xlink:href="#510000"
         id="use40" />
    </clipPath>
    <clipPath
       id="clip520000">
      <use
         xlink:href="#520000"
         id="use43" />
    </clipPath>
    <clipPath
       id="clip530100">
      <use
         xlink:href="#530100"
         id="use46" />
    </clipPath>
    <clipPath
       id="clip530300">
      <use
         xlink:href="#530300"
         id="use49" />
    </clipPath>
    <clipPath
       id="clip530400">
      <use
         xlink:href="#530400"
         id="use52" />
    </clipPath>
    <clipPath
       id="clip530500">
      <use
         xlink:href="#530500"
         id="use55" />
    </clipPath>
    <clipPath
       id="clip530600">
      <use
         xlink:href="#530600"
         id="use58" />
    </clipPath>
    <clipPath
       id="clip530700">
      <use
         xlink:href="#530700"
         id="use61" />
    </clipPath>
    <clipPath
       id="clip530800">
      <use
         xlink:href="#530800"
         id="use64" />
    </clipPath>
    <clipPath
       id="clip530900">
      <use
         xlink:href="#530900"
         id="use67" />
    </clipPath>
    <clipPath
       id="clip532300">
      <use
         xlink:href="#532300"
         id="use70" />
    </clipPath>
    <clipPath
       id="clip532500">
      <use
         xlink:href="#532500"
         id="use73" />
    </clipPath>
    <clipPath
       id="clip532600">
      <use
         xlink:href="#532600"
         id="use76" />
    </clipPath>
    <clipPath
       id="clip532800">
      <use
         xlink:href="#532800"
         id="use79" />
    </clipPath>
    <clipPath
       id="clip532900">
      <use
         xlink:href="#532900"
         id="use82" />
    </clipPath>
    <clipPath
       id="clip533100">
      <use
         xlink:href="#533100"
         id="use85" />
    </clipPath>
    <clipPath
       id="clip533300">
      <use
         xlink:href="#533300"
         id="use88" />
    </clipPath>
    <clipPath
       id="clip533400">
      <use
         xlink:href="#533400"
         id="use91" />
    </clipPath>
    <clipPath
       id="clip540000">
      <use
         xlink:href="#540000"
         id="use94" />
    </clipPath>
  </g>
  <g
     id="g96">
    <a
       xlink:href="http://ja.wikipedia.org/wiki/広西壮族自治区"
       clip-path="url(#clip450000)"
       fill="none"
       stroke-linejoin="round"
       id="a98">
      <use
         xlink:href="#450000"
         fill="#eeeecc"
         stroke="#e6e6c4"
         stroke-width="64"
         id="use100"
         style="stroke:none;fill:#c4fad5;fill-opacity:1" />
      <use
         xlink:href="#450000"
         stroke="#000000"
         stroke-width="0.5"
         id="use114" />
    </a>
    <a
       xlink:href="http://ja.wikipedia.org/wiki/重慶市"
       clip-path="url(#clip500000)"
       fill="none"
       stroke-linejoin="round"
       id="a116">
      <use
         xlink:href="#500000"
         fill="#eeeecc"
         stroke="#e6e6c4"
         stroke-width="64"
         id="use118"
         style="stroke:none;fill:#c4fad5;fill-opacity:1" />
      <use
         xlink:href="#500000"
         stroke="#000000"
         stroke-width="0.5"
         id="use132" />
    </a>
    <a
       xlink:href="http://ja.wikipedia.org/wiki/四川省"
       clip-path="url(#clip510000)"
       fill="none"
       stroke-linejoin="round"
       id="a134">
      <use
         xlink:href="#510000"
         fill="#eeeecc"
         stroke="#e6e6c4"
         stroke-width="64"
         id="use136"
         style="stroke:none;fill:#c4fad5;fill-opacity:1" />
      <use
         xlink:href="#510000"
         stroke="#000000"
         stroke-width="0.5"
         id="use150" />
    </a>
    <a
       xlink:href="http://ja.wikipedia.org/wiki/貴州省"
       clip-path="url(#clip520000)"
       fill="none"
       stroke-linejoin="round"
       id="a152">
      <use
         xlink:href="#520000"
         fill="#eeeecc"
         stroke="#e6e6c4"
         stroke-width="64"
         id="use154"
         style="stroke:none" />
      <use
         xlink:href="#520000"
         stroke="#000000"
         stroke-width="0.5"
         id="use168"
         style="fill:#c4fad5;fill-opacity:1" />
    </a>
    <a
       xlink:href="http://ja.wikipedia.org/wiki/チベット自治区"
       clip-path="url(#clip540000)"
       fill="none"
       stroke-linejoin="round"
       id="a170">
      <use
         xlink:href="#540000"
         fill="#eeeecc"
         stroke="#e6e6c4"
         stroke-width="64"
         id="use172"
         style="stroke:none;fill:#c4fad5;fill-opacity:1" />
      <use
         xlink:href="#540000"
         stroke="#000000"
         stroke-width="0.5"
         id="use186" />
    </a>
  </g>
  <g
     id="g212">
    <a
       xlink:href="http://ja.wikipedia.org/wiki/昆明市"
       clip-path="url(#clip530100)"
       id="a214"
       stroke-linejoin="round"
       fill="none">
      <use
         xlink:href="#530100"
         id="use216"
         style="stroke:none;fill:#6526f9;fill-opacity:1"
         stroke-width="16"
         stroke="#f38dd1"
         fill="#ff99dd" />
      <use
         xlink:href="#530100"
         id="use218"
         stroke-width="0.5"
         stroke="#000000" />
    </a>
    <a
       xlink:href="http://ja.wikipedia.org/wiki/曲靖市"
       clip-path="url(#clip530300)"
       id="a220"
       stroke-linejoin="round"
       fill="none">
      <use
         xlink:href="#530300"
         id="use222"
         style="stroke:none;fill:#bdb0da;fill-opacity:1"
         stroke-width="16"
         stroke="#f38dd1"
         fill="#ff99dd" />
      <use
         xlink:href="#530300"
         id="use224"
         stroke-width="0.5"
         stroke="#000000" />
    </a>
    <a
       xlink:href="http://ja.wikipedia.org/wiki/玉渓市"
       clip-path="url(#clip530400)"
       id="a226"
       stroke-linejoin="round"
       fill="none">
      <use
         xlink:href="#530400"
         id="use228"
         style="stroke:none;fill:#bdb0da;fill-opacity:1"
         stroke-width="16"
         stroke="#f38dd1"
         fill="#ff99dd" />
      <use
         xlink:href="#530400"
         id="use230"
         stroke-width="0.5"
         stroke="#000000" />
    </a>
    <a
       xlink:href="http://ja.wikipedia.org/wiki/保山市"
       clip-path="url(#clip530500)"
       id="a232"
       stroke-linejoin="round"
       fill="none">
      <use
         xlink:href="#530500"
         id="use234"
         style="stroke:none;fill:#bdb0da;fill-opacity:1"
         stroke-width="16"
         stroke="#f38dd1"
         fill="#ff99dd" />
      <use
         xlink:href="#530500"
         id="use236"
         stroke-width="0.5"
         stroke="#000000" />
    </a>
    <a
       xlink:href="http://ja.wikipedia.org/wiki/昭通市"
       clip-path="url(#clip530600)"
       id="a238"
       stroke-linejoin="round"
       fill="none">
      <use
         xlink:href="#530600"
         id="use240"
         style="stroke:none;fill:#bdb0da;fill-opacity:1"
         stroke-width="16"
         stroke="#f38dd1"
         fill="#ff99dd" />
      <use
         xlink:href="#530600"
         id="use242"
         stroke-width="0.5"
         stroke="#000000" />
    </a>
    <a
       xlink:href="http://ja.wikipedia.org/wiki/麗江市"
       clip-path="url(#clip530700)"
       id="a244"
       stroke-linejoin="round"
       fill="none">
      <use
         xlink:href="#530700"
         id="use246"
         style="stroke:none;fill:#bdb0da;fill-opacity:1"
         stroke-width="16"
         stroke="#f38dd1"
         fill="#ff99dd" />
      <use
         xlink:href="#530700"
         id="use248"
         stroke-width="0.5"
         stroke="#000000" />
    </a>
    <a
       xlink:href="http://ja.wikipedia.org/wiki/プーアル市"
       clip-path="url(#clip530800)"
       id="a250"
       stroke-linejoin="round"
       fill="none">
      <use
         xlink:href="#530800"
         id="use252"
         style="stroke:none;fill:#bdb0da;fill-opacity:1"
         stroke-width="16"
         stroke="#f38dd1"
         fill="#ff99dd" />
      <use
         xlink:href="#530800"
         id="use254"
         stroke-width="0.5"
         stroke="#000000" />
    </a>
    <a
       xlink:href="http://ja.wikipedia.org/wiki/臨滄市"
       clip-path="url(#clip530900)"
       id="a256"
       stroke-linejoin="round"
       fill="none">
      <use
         xlink:href="#530900"
         id="use258"
         style="stroke:none;fill:#bdb0da;fill-opacity:1"
         stroke-width="16"
         stroke="#f38dd1"
         fill="#ff99dd" />
      <use
         xlink:href="#530900"
         id="use260"
         stroke-width="0.5"
         stroke="#000000" />
    </a>
    <a
       xlink:href="http://ja.wikipedia.org/wiki/楚雄彝族自治州"
       clip-path="url(#clip532300)"
       id="a262"
       stroke-linejoin="round"
       fill="none">
      <use
         xlink:href="#532300"
         id="use264"
         style="stroke:none;fill:#d9aec0;fill-opacity:1"
         stroke-width="16"
         stroke="#f38dd1"
         fill="#ff99dd" />
      <use
         xlink:href="#532300"
         id="use266"
         stroke-width="0.5"
         stroke="#000000" />
    </a>
    <a
       xlink:href="http://ja.wikipedia.org/wiki/紅河ハニ族イ族自治州"
       clip-path="url(#clip532500)"
       id="a268"
       stroke-linejoin="round"
       fill="none">
      <use
         xlink:href="#532500"
         id="use270"
         style="stroke:none;fill:#d9aec0;fill-opacity:1"
         stroke-width="16"
         stroke="#f38dd1"
         fill="#ff99dd" />
      <use
         xlink:href="#532500"
         id="use272"
         stroke-width="0.5"
         stroke="#000000" />
    </a>
    <a
       xlink:href="http://ja.wikipedia.org/wiki/文山壮族苗族自治州"
       clip-path="url(#clip532600)"
       id="a274"
       stroke-linejoin="round"
       fill="none">
      <use
         xlink:href="#532600"
         id="use276"
         style="stroke:none;fill:#d9aec0;fill-opacity:1"
         stroke-width="16"
         stroke="#f38dd1"
         fill="#ff99dd" />
      <use
         xlink:href="#532600"
         id="use278"
         stroke-width="0.5"
         stroke="#000000" />
    </a>
    <a
       xlink:href="http://ja.wikipedia.org/wiki/西双版納タイ族自治州"
       clip-path="url(#clip532800)"
       id="a280"
       stroke-linejoin="round"
       fill="none">
      <use
         xlink:href="#532800"
         id="use282"
         style="stroke:none;fill:#d9aec0;fill-opacity:1"
         stroke-width="16"
         stroke="#f38dd1"
         fill="#ff99dd" />
      <use
         xlink:href="#532800"
         id="use284"
         stroke-width="0.5"
         stroke="#000000" />
    </a>
    <a
       xlink:href="http://ja.wikipedia.org/wiki/大理白族自治州"
       clip-path="url(#clip532900)"
       id="a286"
       stroke-linejoin="round"
       fill="none">
      <use
         xlink:href="#532900"
         id="use288"
         style="stroke:none;fill:#d9aec0;fill-opacity:1"
         stroke-width="16"
         stroke="#f38dd1"
         fill="#ff99dd" />
      <use
         xlink:href="#532900"
         id="use290"
         stroke-width="0.5"
         stroke="#000000" />
    </a>
    <a
       xlink:href="http://ja.wikipedia.org/wiki/徳宏タイ族景頗族自治州"
       clip-path="url(#clip533100)"
       id="a292"
       stroke-linejoin="round"
       fill="none">
      <use
         xlink:href="#533100"
         id="use294"
         style="stroke:none;fill:#d9aec0;fill-opacity:1"
         stroke-width="16"
         stroke="#f38dd1"
         fill="#ff99dd" />
      <use
         xlink:href="#533100"
         id="use296"
         stroke-width="0.5"
         stroke="#000000" />
    </a>
    <a
       xlink:href="http://ja.wikipedia.org/wiki/怒江リス族自治州"
       clip-path="url(#clip533300)"
       id="a298"
       stroke-linejoin="round"
       fill="none">
      <use
         xlink:href="#533300"
         id="use300"
         style="stroke:none;fill:#d9aec0;fill-opacity:1"
         stroke-width="16"
         stroke="#f38dd1"
         fill="#ff99dd" />
      <use
         xlink:href="#533300"
         id="use302"
         stroke-width="0.5"
         stroke="#000000" />
    </a>
    <a
       xlink:href="http://ja.wikipedia.org/wiki/デチェン蔵族自治州"
       clip-path="url(#clip533400)"
       id="a304"
       stroke-linejoin="round"
       fill="none">
      <use
         xlink:href="#533400"
         id="use306"
         style="stroke:none;fill:#d9aec0;fill-opacity:1"
         stroke-width="16"
         stroke="#f38dd1"
         fill="#ff99dd" />
      <use
         xlink:href="#533400"
         id="use308"
         stroke-width="0.5"
         stroke="#000000" />
    </a>
  </g>
  <g
     id="g310">
    <rect
       x="734"
       y="945"
       width="204"
       height="48"
       fill="#dddddd"
       opacity="0.5"
       id="rect312" />
    <rect
       x="740"
       y="975"
       width="192"
       height="12"
       fill="#333333"
       id="rect314" />
    <text
       x="836"
       y="971"
       font-family="Helvetica"
       font-size="28"
       fill="#333333"
       text-anchor="middle"
       id="text316">200km</text>
  </g>
  <circle
     id="circle3192"
     r="3"
     cy="415"
     cx="176"
     sodipodi:cx="176"
     sodipodi:cy="415"
     sodipodi:rx="3"
     sodipodi:ry="3"
     style="fill:#ff0000"
     transform="translate(-27.314089,163.8697)" />
  <circle
     transform="translate(34.858845,90.585007)"
     style="fill:#ff0000"
     sodipodi:ry="3"
     sodipodi:rx="3"
     sodipodi:cy="415"
     sodipodi:cx="176"
     cx="176"
     cy="415"
     r="3"
     id="circle4464" />
  <circle
     id="circle4466"
     r="3"
     cy="415"
     cx="176"
     sodipodi:cx="176"
     sodipodi:cy="415"
     sodipodi:rx="3"
     sodipodi:ry="3"
     style="fill:#ff0000"
     transform="translate(2.5818322,8.0405153)" />
  <circle
     transform="translate(138.56859,-99.108586)"
     style="fill:#ff0000"
     sodipodi:ry="3"
     sodipodi:rx="3"
     sodipodi:cy="415"
     sodipodi:cx="176"
     cx="176"
     cy="415"
     r="3"
     id="circle4468" />
  <circle
     id="circle4470"
     r="3"
     cy="415"
     cx="176"
     sodipodi:cx="176"
     sodipodi:cy="415"
     sodipodi:rx="3"
     sodipodi:ry="3"
     style="fill:#ff0000"
     transform="translate(90.682202,-205.46399)" />
  <circle
     transform="translate(137.77489,40.052959)"
     style="fill:#ff0000"
     sodipodi:ry="3"
     sodipodi:rx="3"
     sodipodi:cy="415"
     sodipodi:cx="176"
     cx="176"
     cy="415"
     r="3"
     id="circle4472" />
  <circle
     id="circle4474"
     r="3"
     cy="415"
     cx="176"
     sodipodi:cx="176"
     sodipodi:cy="415"
     sodipodi:rx="3"
     sodipodi:ry="3"
     style="fill:#ff0000"
     transform="translate(117.13877,219.69306)" />
  <circle
     transform="translate(261.0625,103.54873)"
     style="fill:#ff0000"
     sodipodi:ry="3"
     sodipodi:rx="3"
     sodipodi:cy="415"
     sodipodi:cx="176"
     cx="176"
     cy="415"
     r="3"
     id="circle4476" />
  <circle
     id="circle4478"
     r="3"
     cy="415"
     cx="176"
     sodipodi:cx="176"
     sodipodi:cy="415"
     sodipodi:rx="3"
     sodipodi:ry="3"
     style="fill:#ff0000"
     transform="translate(181.6928,420.49841)" />
  <circle
     transform="translate(181.6928,420.49841)"
     style="fill:#ff0000"
     sodipodi:ry="3"
     sodipodi:rx="3"
     sodipodi:cy="415"
     sodipodi:cx="176"
     cx="176"
     cy="415"
     r="3"
     id="circle4480" />
  <circle
     id="circle4482"
     r="3"
     cy="415"
     cx="176"
     sodipodi:cx="176"
     sodipodi:cy="415"
     sodipodi:rx="3"
     sodipodi:ry="3"
     style="fill:#ff0000"
     transform="translate(361.33289,172.33581)" />
  <circle
     transform="translate(449.1687,281.866)"
     style="fill:#ff0000"
     sodipodi:ry="3"
     sodipodi:rx="3"
     sodipodi:cy="415"
     sodipodi:cx="176"
     cx="176"
     cy="415"
     r="3"
     id="circle4484" />
  <circle
     id="circle4486"
     r="3"
     cy="415"
     cx="176"
     sodipodi:cx="176"
     sodipodi:cy="415"
     sodipodi:rx="3"
     sodipodi:ry="3"
     style="fill:#ff0000"
     transform="translate(526.95101,280.80774)" />
  <circle
     transform="translate(385.67294,112.80854)"
     style="fill:#ff0000"
     sodipodi:ry="3"
     sodipodi:rx="3"
     sodipodi:cy="415"
     sodipodi:cx="176"
     cx="176"
     cy="415"
     r="3"
     id="circle4488" />
  <circle
     id="circle4490"
     r="3"
     cy="415"
     cx="176"
     sodipodi:cx="176"
     sodipodi:cy="415"
     sodipodi:rx="3"
     sodipodi:ry="3"
     style="fill:#ff0000"
     transform="translate(487.00159,49.048211)" />
  <circle
     transform="translate(466.1009,-154.66736)"
     style="fill:#ff0000"
     sodipodi:ry="3"
     sodipodi:rx="3"
     sodipodi:cy="415"
     sodipodi:cx="176"
     cx="176"
     cy="415"
     r="3"
     id="circle4492" />
  <circle
     id="circle4494"
     r="3"
     cy="415"
     cx="176"
     sodipodi:cx="176"
     sodipodi:cy="415"
     sodipodi:rx="3"
     sodipodi:ry="3"
     style="fill:#ff0000"
     transform="translate(197.56674,343.24523)" />
</svg>
